    <svg xmlns="http://www.w3.org/2000/svg" width="184.929" height="147">
      <g opacity="1" transform="scale(.43362)">
        <g fill="#1f1f1f" fillRule="evenodd" className="0">
          <path
            d="M0 0h100v100H0V0zm2 2v96h96V2H2z"
            transform="translate(85.296) scale(2.55888)"
          ></path>
          <path
            d="M4 4h92v92H4V4zm2 2v88h88V6H6z"
            transform="translate(85.296) scale(2.55888)"
          ></path>
        </g>
        <path
          fill="#1f1f1f"
          d="M-43.66-122.15V0h61.95c4.55 0 8.75-.9 12.6-2.71 3.85-1.81 7.17-4.29 9.97-7.44 2.8-3.15 4.99-6.85 6.57-11.11C49-25.52 49.79-30.1 49.79-35c0-5.25-.88-9.65-2.63-13.21-1.75-3.56-3.93-6.48-6.56-8.75-2.62-2.28-5.48-3.94-8.57-4.99-3.1-1.05-5.98-1.58-8.67-1.58v-1.04c2.8-.12 5.52-.71 8.14-1.75 2.63-1.05 4.96-2.63 7-4.73 2.04-2.1 3.68-4.75 4.9-7.96 1.23-3.21 1.84-7.15 1.84-11.81 0-4.67-.73-8.96-2.19-12.87-1.46-3.91-3.59-7.2-6.39-9.89-2.8-2.68-6.21-4.78-10.23-6.3-4.03-1.51-8.55-2.27-13.57-2.27zm23.1 102.55v-32.72h32.2c4.43 0 7.87 1.16 10.32 3.5 2.45 2.33 3.68 5.65 3.68 9.97v5.95c0 4.32-1.23 7.61-3.68 9.89-2.45 2.27-5.89 3.41-10.32 3.41zm0-51.63v-31.32H7.96c4.2 0 7.47 1.14 9.8 3.41 2.34 2.28 3.5 5.46 3.5 9.54v5.42c0 4.09-1.16 7.27-3.5 9.54-2.33 2.28-5.6 3.41-9.8 3.41z"
          transform="translate(210.175 189.019)"
          className="0"
        ></path>
        <path
          fill="#1f1f1f"
          d="M-211.89-41.88V0h21.24c1.56 0 3-.31 4.32-.93 1.32-.62 2.46-1.47 3.42-2.55.96-1.08 1.71-2.35 2.25-3.81s.81-3.03.81-4.71c0-1.8-.3-3.31-.9-4.53-.6-1.22-1.35-2.22-2.25-3-.9-.78-1.88-1.35-2.94-1.71-1.06-.36-2.05-.54-2.97-.54v-.36c.96-.04 1.89-.24 2.79-.6.9-.36 1.7-.9 2.4-1.62.7-.72 1.26-1.63 1.68-2.73.42-1.1.63-2.45.63-4.05 0-1.6-.25-3.07-.75-4.41-.5-1.34-1.23-2.47-2.19-3.39-.96-.92-2.13-1.64-3.51-2.16-1.38-.52-2.93-.78-4.65-.78zm7.92 35.16v-11.22h11.04c1.52 0 2.7.4 3.54 1.2.84.8 1.26 1.94 1.26 3.42v2.04c0 1.48-.42 2.61-1.26 3.39-.84.78-2.02 1.17-3.54 1.17zm0-17.7v-10.74h9.78c1.44 0 2.56.39 3.36 1.17.8.78 1.2 1.87 1.2 3.27v1.86c0 1.4-.4 2.49-1.2 3.27-.8.78-1.92 1.17-3.36 1.17zm55.8 25.14c2.24 0 4.26-.38 6.06-1.14 1.8-.76 3.33-1.86 4.59-3.3 1.26-1.44 2.23-3.17 2.91-5.19.68-2.02 1.02-4.29 1.02-6.81 0-2.52-.34-4.78-1.02-6.78-.68-2-1.65-3.71-2.91-5.13-1.26-1.42-2.79-2.51-4.59-3.27-1.8-.76-3.82-1.14-6.06-1.14-2.24 0-4.25.38-6.03 1.14-1.78.76-3.3 1.85-4.56 3.27-1.26 1.42-2.23 3.13-2.91 5.13-.68 2-1.02 4.26-1.02 6.78 0 2.52.34 4.79 1.02 6.81.68 2.02 1.65 3.75 2.91 5.19 1.26 1.44 2.78 2.54 4.56 3.3 1.78.76 3.79 1.14 6.03 1.14zm0-6.18c-2 0-3.58-.62-4.74-1.86-1.16-1.24-1.74-3.06-1.74-5.46v-5.82c0-2.36.58-4.16 1.74-5.4 1.16-1.24 2.74-1.86 4.74-1.86 2.04 0 3.64.62 4.8 1.86 1.16 1.24 1.74 3.04 1.74 5.4v5.82c0 2.4-.58 4.22-1.74 5.46-1.16 1.24-2.76 1.86-4.8 1.86zM-91.77 0h4.26v-6.12h-3.12v-14.76c0-3.6-1.1-6.36-3.3-8.28-2.2-1.92-5.42-2.88-9.66-2.88-3.16 0-5.7.55-7.62 1.65-1.92 1.1-3.46 2.55-4.62 4.35l4.56 4.08c.76-1.08 1.69-2.01 2.79-2.79 1.1-.78 2.55-1.17 4.35-1.17 2.04 0 3.52.48 4.44 1.44.92.96 1.38 2.32 1.38 4.08v2.28h-5.34c-4.28 0-7.58.79-9.9 2.37-2.32 1.58-3.48 3.99-3.48 7.23 0 2.8.86 5.04 2.58 6.72 1.72 1.68 4.18 2.52 7.38 2.52 2.36 0 4.34-.51 5.94-1.53 1.6-1.02 2.66-2.55 3.18-4.59h.36c.24 1.64.85 2.95 1.83 3.93.98.98 2.31 1.47 3.99 1.47zm-12.72-4.86c-1.52 0-2.69-.31-3.51-.93-.82-.62-1.23-1.57-1.23-2.85v-1.02c0-2.56 2-3.84 6-3.84h4.92v4.14c0 1.48-.6 2.6-1.8 3.36-1.2.76-2.66 1.14-4.38 1.14zM-69.27 0h7.68v-19.2c0-1.72.66-2.96 1.98-3.72 1.32-.76 3.28-1.14 5.88-1.14h2.4v-7.26h-1.68c-1.24 0-2.33.18-3.27.54-.94.36-1.75.84-2.43 1.44-.68.6-1.23 1.29-1.65 2.07-.42.78-.73 1.59-.93 2.43h-.3v-6.48h-7.68zm54.72-5.22V0h7.68v-44.4h-7.68v18.24h-.3c-.56-1.8-1.62-3.23-3.18-4.29s-3.38-1.59-5.46-1.59c-3.96 0-6.99 1.41-9.09 4.23-2.1 2.82-3.15 6.85-3.15 12.09 0 5.28 1.05 9.34 3.15 12.18C-30.48-.7-27.45.72-23.49.72c2.08 0 3.9-.54 5.46-1.62s2.62-2.52 3.18-4.32zm-6.48-.42c-2 0-3.61-.66-4.83-1.98-1.22-1.32-1.83-3.1-1.83-5.34v-5.4c0-2.24.61-4.03 1.83-5.37 1.22-1.34 2.83-2.01 4.83-2.01 1.84 0 3.38.46 4.62 1.38 1.24.92 1.86 2.14 1.86 3.66v9.96c0 1.64-.62 2.9-1.86 3.78-1.24.88-2.78 1.32-4.62 1.32zm35.52-36.24V0h21.24c1.56 0 3-.31 4.32-.93 1.32-.62 2.46-1.47 3.42-2.55.96-1.08 1.71-2.35 2.25-3.81s.81-3.03.81-4.71c0-1.8-.3-3.31-.9-4.53-.6-1.22-1.35-2.22-2.25-3-.9-.78-1.88-1.35-2.94-1.71-1.06-.36-2.05-.54-2.97-.54v-.36c.96-.04 1.89-.24 2.79-.6.9-.36 1.7-.9 2.4-1.62.7-.72 1.26-1.63 1.68-2.73.42-1.1.63-2.45.63-4.05 0-1.6-.25-3.07-.75-4.41-.5-1.34-1.23-2.47-2.19-3.39-.96-.92-2.13-1.64-3.51-2.16-1.38-.52-2.93-.78-4.65-.78zm7.92 35.16v-11.22h11.04c1.52 0 2.7.4 3.54 1.2.84.8 1.26 1.94 1.26 3.42v2.04c0 1.48-.42 2.61-1.26 3.39-.84.78-2.02 1.17-3.54 1.17zm0-17.7v-10.74h9.78c1.44 0 2.56.39 3.36 1.17.8.78 1.2 1.87 1.2 3.27v1.86c0 1.4-.4 2.49-1.2 3.27-.8.78-1.92 1.17-3.36 1.17zM78.21.72c2.24 0 4.26-.38 6.06-1.14 1.8-.76 3.33-1.86 4.59-3.3 1.26-1.44 2.23-3.17 2.91-5.19.68-2.02 1.02-4.29 1.02-6.81 0-2.52-.34-4.78-1.02-6.78-.68-2-1.65-3.71-2.91-5.13-1.26-1.42-2.79-2.51-4.59-3.27-1.8-.76-3.82-1.14-6.06-1.14-2.24 0-4.25.38-6.03 1.14-1.78.76-3.3 1.85-4.56 3.27-1.26 1.42-2.23 3.13-2.91 5.13-.68 2-1.02 4.26-1.02 6.78 0 2.52.34 4.79 1.02 6.81.68 2.02 1.65 3.75 2.91 5.19 1.26 1.44 2.78 2.54 4.56 3.3C73.96.34 75.97.72 78.21.72zm0-6.18c-2 0-3.58-.62-4.74-1.86-1.16-1.24-1.74-3.06-1.74-5.46v-5.82c0-2.36.58-4.16 1.74-5.4 1.16-1.24 2.74-1.86 4.74-1.86 2.04 0 3.64.62 4.8 1.86 1.16 1.24 1.74 3.04 1.74 5.4v5.82c0 2.4-.58 4.22-1.74 5.46-1.16 1.24-2.76 1.86-4.8 1.86zM123.99.72c2.24 0 4.26-.38 6.06-1.14 1.8-.76 3.33-1.86 4.59-3.3 1.26-1.44 2.23-3.17 2.91-5.19.68-2.02 1.02-4.29 1.02-6.81 0-2.52-.34-4.78-1.02-6.78-.68-2-1.65-3.71-2.91-5.13-1.26-1.42-2.79-2.51-4.59-3.27-1.8-.76-3.82-1.14-6.06-1.14-2.24 0-4.25.38-6.03 1.14-1.78.76-3.3 1.85-4.56 3.27-1.26 1.42-2.23 3.13-2.91 5.13-.68 2-1.02 4.26-1.02 6.78 0 2.52.34 4.79 1.02 6.81.68 2.02 1.65 3.75 2.91 5.19 1.26 1.44 2.78 2.54 4.56 3.3 1.78.76 3.79 1.14 6.03 1.14zm0-6.18c-2 0-3.58-.62-4.74-1.86-1.16-1.24-1.74-3.06-1.74-5.46v-5.82c0-2.36.58-4.16 1.74-5.4 1.16-1.24 2.74-1.86 4.74-1.86 2.04 0 3.64.62 4.8 1.86 1.16 1.24 1.74 3.04 1.74 5.4v5.82c0 2.4-.58 4.22-1.74 5.46-1.16 1.24-2.76 1.86-4.8 1.86zM167.61.72c1.96 0 3.73-.25 5.31-.75 1.58-.5 2.93-1.2 4.05-2.1 1.12-.9 1.99-1.98 2.61-3.24.62-1.26.93-2.65.93-4.17 0-5.2-3.38-8.28-10.14-9.24l-3.18-.42c-1.48-.24-2.53-.63-3.15-1.17-.62-.54-.93-1.33-.93-2.37 0-.96.37-1.74 1.11-2.34.74-.6 1.95-.9 3.63-.9 1.52 0 2.92.32 4.2.96 1.28.64 2.38 1.44 3.3 2.4l4.5-4.5c-.76-.76-1.54-1.45-2.34-2.07-.8-.62-1.68-1.14-2.64-1.56-.96-.42-2.03-.74-3.21-.96-1.18-.22-2.53-.33-4.05-.33-1.8 0-3.43.23-4.89.69-1.46.46-2.71 1.12-3.75 1.98-1.04.86-1.84 1.9-2.4 3.12-.56 1.22-.84 2.59-.84 4.11 0 2.88.89 5.07 2.67 6.57 1.78 1.5 4.37 2.47 7.77 2.91l3.12.42c1.4.2 2.39.57 2.97 1.11.58.54.87 1.27.87 2.19 0 1.12-.41 2-1.23 2.64-.82.64-2.15.96-3.99.96-1.8 0-3.39-.38-4.77-1.14-1.38-.76-2.65-1.8-3.81-3.12l-4.68 4.56c1.56 1.8 3.36 3.21 5.4 4.23 2.04 1.02 4.56 1.53 7.56 1.53zM208.59 0h5.52v-6.12h-5.94V-25.2h6.42v-6.12h-6.42v-8.58h-6.9v5.34c0 1.08-.21 1.89-.63 2.43-.42.54-1.21.81-2.37.81h-2.4v6.12h4.62v17.22c0 2.56.69 4.53 2.07 5.91S205.95 0 208.59 0z"
          transform="translate(211.89 338.288)"
          className="0"
        ></path>
      </g>
    </svg>
