<svg xmlns="http://www.w3.org/2000/svg" width="300" height="40.784">
      <g opacity="1" transform="scale(.64935)">
        <g fill="#0f0f0f" className="qwsIbBH_9">
          <path
            d="M86.68 51.552c-.025-.844-.279.451-.086-.552.111.114.193.278.086.552z"
            transform="matrix(.82844 0 0 .82844 -10.32 -10.578)"
          ></path>
          <path
            d="M86.4 48.207c-.117-.331-.19-.676-.283-1.029a12.628 12.628 0 01-.275-1.084 29.89 29.89 0 01-.367-2.307 48.635 48.635 0 00-.55-2.321 19.466 19.466 0 00-.333-1.119 8.113 8.113 0 00-.499-1.021c-.149-.312.426-.051.062-.753-.408-.613-.696-1.375-1.139-2.136a31.867 31.867 0 01-1.203-2.488c-.901-1.678-1.736-3.509-2.664-5.015l.222.1c-.351-.58-1.098-1.032-1.545-1.573.056-.055.237.096.209-.095-.3.02-.944-.878-1.276-.981-.12-.269.036-.376-.134-.716l-.467-.115c-.586-.213-1.11-.638-1.607-1.176-.512-.518-1.014-1.142-1.715-1.488.098-.004.25.048.191-.071a24.14 24.14 0 01-1.684-.991c-.573-.355-1.125-.779-1.757-1.099-1.234-.679-2.443-1.471-3.726-1.943.139-.038.308-.15.211-.315-.248.195-1.035-.104-1.711-.369-.17-.443-1.259-.213-1.991-.661l.09-.036c-.692.071-.82-.487-1.415-.316l-.304-.355c-.383.311-.821-.434-1.384-.367l-.006.086c-.499-.025-.695-.288-1.152-.334l-.031-.057c-1.048-.19-1.627-.457-1.658-.149-.323-.308 1.042.041.534-.413-3.533-.34-7.133-.528-10.665-.243-.411-.077-.669-.07-.773-.179-.343.118-1.316.26-1.607.47.116-.024-.253-.127-.442-.114-.663-.014-.635.426-1.345.473.254-.153.326-.278.209-.371-.536.395-1.324.557-1.994.813.093-.08.252-.153.2-.244-.678.473-1.409.271-1.991.706l.184-.264c-1.112.168-.183.478-1.119.68.195-.133.095-.174.108-.259-.724.615-2.109.991-2.84 1.526.037-.046.003-.086.003-.086-.425.228-.875.427-1.33.644-.46.207-.917.449-1.323.803-.37.128-.115-.458-.959.134.223.299-1.402 1.031-.662 1.072l-.648.329-.663.43c-.434.292-.827.581-1.02.804.228-.347-.617-.105-.053-.566l-.578.152c-.027-.17.488-.301.232-.348-.282.242-1.069.974-1.341 1.159-.359.634-.535 1.367-1.302 2.127.279-.449-.498-.1-.284-.381l-.316.767c-.148.389-.263.799-.263.799-.228.277-.264-.145-.543.307.09.047-.018.255-.065.426-.122.072-.927 1.157-1.314 1.04-.217.025.337-.485-.032-.273-.455.491-.335.628-.742 1.154l-.046-.02c-.308.322-.652 1.132-.204.87.192-.236-.245-.039.11-.336-.015.376-.425 1.021-.816 1.55.086-.213-.01-.247-.041-.379a26.642 26.642 0 01-1.079 2.641c.142.102-.082-.473.073-.552-.421.485-.724 1.07-.937 1.664-.208.598-.414 1.159-.802 1.557.047-.169.263.022.214.011-.283.536-.501.409-.588.804-.149-.023-.191.462-.271.868.027.238-.103.073.004-.268-.039.292-.201.991-.433 1.758a40.494 40.494 0 01-.782 2.213c.1.004.147.872.063 1.155l-.193-.169c-.201.233-.231.979-.435.984.11.689.389-2.46.38-1.564-.242.172.051 1.262-.204 1.006-.14.592-.059 1.202-.33 1.736.061-.158-.237-.547-.295-.058-.09.863.07.263.04.967l.027.447c.216.061-.146.754.149.473-.195.082-.084 1.24-.424 1.116l-.278-.148c-.008.376.272.641.383.942-.03.046-.093.139-.139.117.441.09-.081.885.24 1.34-.095.384-.129.877-.164 1.318.004.441-.01.832-.14 1.02.165.596.353 1.127.291 1.813-.048-.132-.07-.317-.168-.349-.109.438.013.536.104.919-.1-.079-.144.875-.228 1.374.223.575.428.335.583.373-.33.606.484 1.611.286 2.338-.123-.182-.407-.803-.413-.295-.29.628.593.999.606 1.897l.299-.302c-.121.436.522 1.185.143 1.203.175.252.199 1.019.504.818.104.718.448 1.525.725 2.276.253.763.607 1.405.49 1.951.143.161.313.654.431.477.029-.395-.336-.37-.269-.544.09.162.195.156.248.152.12.437.251.768-.198.517.254 1.001.94.675 1.488 1.804-.157.025-.155.135.057.44l.579.468c.372.726-.041.577-.242.727.263.356.533.826.82.87l.065.609c-.049-.444.34.204.514.333l-.174-.13c-.036.127.323.498.502.685.086-.142-.174-.595-.307-.847.223.115.41.408.69.566-.253.07.289.677.477.972.194.358.462.2.526.298-.091.089.421.494.077.38-.122-.075-.115-.309-.352-.404.105.255-.083.376.408.677.369.225.292-.396.699.281-.183-.111-.281-.073-.453-.133l.399.628.184-.128c.025.111-.035.074-.026.128.318.001.803.777 1.1.714.279.237.461.63.703.887l-.063-.031c.228.384.712.707 1.077.836l-.046.024c.163.169.591.522.897.609.367.483-.368.773.336.949.493.359 1.006.242.897-.017.386.382.878.684 1.344.998.491.28.97.553 1.305.962.179.004.125-.095.424.025 1.274.968 3.053 1.295 3.988 2.27-.451-.114-.117.19-.158.312.418-.01.345.366.602.104.043-.204.109-.266-.267-.514.916.243 2.253.714 2.683 1.079-.216-.179-.006-.167.204-.154-.167.285.474.578 1.022.577l.126-.17.276.278c.213-.01.322-.341.777-.03.007.08.018.162.097.24.572-.038 1.348-.051 1.9.172l.424.353c.256.007.7-.099.278-.246.961.32 1.6.441 1.889.734 1.798-.441 4.256-.318 6.255-.459l-.049.149c.547.11.26-.269.641-.186-.164.148.436.282.026.474.793.132.971-.34 1.456-.476.051-.202-.383.183-.316-.073.075-.081 1.07-.013 1.145-.319.206.084.092.318.006.45l.445-.21c.634.247-1.218.8-.555 1.122l.435-.113c.472.236-1.126.52.008.452.467-.216.802-.694.355-.756.976-.242.341-.726 1.383-.913.158.046-.044.114-.259.182-.217.052-.444.114-.32.216.551.179.956-.358 1.408-.373-.505.017-.164-.375.128-.505.553-.001-.273.355.473.193.082-.195.723-.489.11-.452.164-.435.791-.094 1.106-.479.32.194-.584.788.269.708-.192-.186.876-.661.341-.88.327-.041.425.139.25.372.495-.013.908-.835 1.226-.406l.059-.303c.167.03.386.019.664.069.196-.069.475-.266.719-.397.237-.147.434-.241.499-.048.104-.096.961-.49.517-.582-.593.1-.523.477-.963.276.49.1.739-.401.995-.638l.114.116c.154-.141.583-.311.62-.513-.098.145.02.205.18.169l.082-.3c.672-.456.365.291 1.04-.127.009.015-.455.429-.455.429.095-.102.462.007.748-.27.024-.265.134-.632.158-.842.33-.311.292.105.552-.311l-.359.52c-.04.107.51.103 1.023-.215.292-.264.629-.83.053-.617.253-.157.682-.265.564-.011.54-.413-.201-.147.224-.559.281-.006.982-.298 1.471-.399l-.287.661.333-.246c-.263.556.347.014.281.441.257-.133.475-.425.648-.652-.954.109.34-1.08-.13-1.28.813-.746 1.234.391 1.663-.908-.217.042-.035-.579-.468-.012.544-.429.051-.646.773-1.054-.324.54.788-.11.317.672-.056-.148-.439.248-.511.371.326-.069.251.372.787-.115.298-.328.74-.74.515-.846-.19-.169-.477.469-.446.096.588-.635.952-.483.871-1.064-.337.435-.626.338-.742.206.014.013.355-.53.355-.53l.039.207c.764-.663-.021-.431.664-1.119l.554-.116c.055.364-1.051.968-.595 1.158.447-.463.413-.779.91-1.145-.061.126-.176.269-.234.396.164-.157.787.075 1.135-.844.188-.461-.05-.203-.174-.321.574-.859.616-1.211.988-1.754.193.31.727-.915.572-.128-.366.156-1.235 1.351-1.203 1.852.27-.025.137.13-.041.346-.197.201-.447.453-.368.67.577-.611.848-.337 1.131-.283.156-.179.209-.432.261-.57-.133-.231-.314.018-.521-.126.614-.711 1.049-1.52 1.16-2.065.286-.18.429.035.225.347.621-.931 1.193-1.979 1.833-2.836-.699.389.528-1.058-.007-.819-.362.446-.865.708-.859.359.203-.284.146.096.296.013.049-.478.66-.429.539-.988-.32.965.344.406.541.719.165-.749.183.133.501-.529.167-.748.435-1.619.727-2.38.637-.847.901-2.44 1.206-3.295.272-.417.528.001.718-.493.147-.6-.481.337-.098-.502l.046.104c-.012-.285.651-1.569.223-1.941l.304.357c.076-.158.03-.331.026-.476.123.02.284-.151.294.138.43-.492.164-1.187.265-1.792l-.283.353c-.024-1.067.325-1.725.372-2.743l.22.052-.102-.617c.206.167.373-.383.21-.716l.231.812.158.565c.048.155.058.257.058.257-.187.426-.208-.508-.46-.254-.21.214-.304 1.15-.112 1.333.079-.356.034-.381-.003-.668.325-.083.229.463.392.764.017-.192.151-.451.06-.504.093.392.058.776-.03 1.403-.054-.442-.224.199-.286.024.26.092.254.708.055 1.466-.445.473-.168 1.467-.48 2.332a3.525 3.525 0 01-.244-1.488c-.274.51-.148.608-.423 1.116.131.316.386.589.319 1.345l-.204-.021c-.102.669.162.758-.18 1.551-.3.676-.58 1.367-.836 2.021l-.861 1.719-.2-.05c.06.374-.131.863-.36 1.36-.23.498-.578.961-.703 1.375-.456.563-.818 1.251-1.153 1.859-.373.581-.74 1.065-1.096 1.257l-1.017 1.547c-.359.486-.75.936-1.131 1.399-.385.46-.779.918-1.19 1.379-.443.429-.92.845-1.417 1.275l.126-.513c-.199.474-.339.079-.648.418.547-.178-.266.656-.393 1.014-1.032.586-2.109 1.632-2.822 2.444l-.147-.143c-.664.9-1.948 1.254-3.085 1.882-.165.013-.471-.058-.808.131-.486.598-.833.74-1.69 1.38-.673.374-1.888.691-2.655.843-.639.338-1.281.705-1.977.918-.693.222-1.4.42-2.112.612l-1.071.285-1.097.188c-.733.131-1.467.277-2.204.458l-.24-.205c-.708.198-1.476.28-2.259.359-.784.051-1.585.161-2.371.075-1.572-.126-3.09-.149-4.335-.273l.289-.368c-.746-.24-1.762-.16-1.617.154-.377-.123-.87-.142-1.322-.197-.445-.089-.851-.197-1.053-.421-.756-.272-.995-.061-1.658-.176-.766-.254-1.271-.477-1.776-.669-.506-.186-1.011-.341-1.737-.567l.344.153c.189-.026.263-.184-.08-.337-.282-.049-.765-.237-1.116-.371-.347-.145-.589-.188-.433.156-.675-.48-1.547-.836-2.417-1.207a7.58 7.58 0 01-2.243-1.436c.045.183-.309-.002-.501-.015a14.244 14.244 0 01-.9-.593l-.814-.69c-.534-.447-1.053-.849-1.579-1.103-.14-.188.428.039-.025-.318-.305-.167-.117.132-.499-.068-.937-.681-1.768-1.522-2.55-2.354-.728-.889-1.381-1.798-2.112-2.548-2.581-2.705-4.554-6.129-6.018-9.39l.107-.002c-.805-.974-.619-2.756-1.486-3.469-.015-.293-.239-1.06-.013-.906-.246-.424-.353-1.09-.48-1.799a13.401 13.401 0 00-.226-1.077c-.074-.36-.149-.717-.287-1.042.01.127.041.195.105.332 0-.706-.118-1.345-.24-1.998-.061-.326-.123-.655-.17-.994a6.083 6.083 0 01.004-1.062c.049.145.094.411.193.445.158-.571-.48-1.307-.025-1.641-.021-.321-.248-.22-.224-.021-.058-1.602.065-3.245.075-4.919-.027-.84.142-1.668.203-2.509.113-.833.119-1.69.339-2.499.869-2.257.805.048.934-1.859.126-.123-.146-.156-.045-.155.028-.37.225-.607.4-.818.195-.205.372-.383.34-.657-.345.104-.039-.365-.2-.436.689-1.303.992-1.485 1.234-2.621l.103.138c.209-1.37 1.019-2.711 1.184-3.923 3.619-6.549 8.865-11.953 15.409-15.419l2.472-1.165c.838-.349 1.701-.635 2.549-.956.427-.151.848-.323 1.28-.458l1.314-.346c.88-.213 1.746-.496 2.64-.646 1.792-.281 3.585-.609 5.417-.61 1.824-.151 3.658.058 5.496.207 1.675.6 1.779.646 3.68.761-.088.052-.207.048-.094.127.164-.341 1.302.254 1.547-.002 1.312.382 2.603.637 3.833 1.129l1.885.665c.641.213 1.239.554 1.88.843-.417-.162-.727-.013-.246.194l.587.05.041.121c.345.112.774.141.485-.116.404.183.82.345 1.21.554l1.147.668c.751.465 1.536.88 2.238 1.414l2.082 1.621c.707.52 1.287 1.191 1.928 1.781 1.302 1.168 2.351 2.571 3.493 3.866l1.521 2.099c.25.351.519.689.757 1.048l.678 1.1c.347.747.923 1.556 1.372 2.46l1.364 2.592c1.665 5.047 2.247 9.718 2.59 14.99-.011.007-.892-.687-1.195-2.786z"
            transform="matrix(.82844 0 0 .82844 -10.32 -10.578)"
          ></path>
          <path
            d="M86.662 52.57c-.173.175-.292.756-.487.277.156-.049.343-.345.487-.277zm-5.487 14.405c.035.04-.152.163-.197.193.07-.173.022-.392.162-.486-.07.175.011.184.035.293zm-2.016 3.282c-.092-.131.235-.894.471-1.314l-.471 1.314zm-2.586 2.509c-.289.156-.276.056-.032-.27.078.025.028.158.032.27zm.095.404a1.01 1.01 0 01-.521.325c.103.073.399-.554.521-.325zm-5.837 4.985c-.14.119-.386.455-.62.427.223-.025.603-.682.62-.427zm-2.803 2.196c-.104.052-.158.053-.251.158-.215.053-.08-.155.065-.259l.186.101zM15.943 59.225l.167.362-.154-.021zm4.892-27.706c.134-.382.27-.146.321-.189-.193.294-.082-.215-.321.189zm10.882-11.263l-.102.066-.118-.277z"
            transform="matrix(.82844 0 0 .82844 -10.32 -10.578)"
          ></path>
        </g>
        <path
          fill="#0f0f0f"
          d="M-3.59-9.91c-.87-1-2.02-1.71-3.45-2.13 1.16-.47 2.04-1.19 2.65-2.18.62-.99.92-2.14.92-3.46 0-4-2.4-6-7.2-6h-5.24V0h6.17c1.34 0 2.57-.23 3.7-.7 1.14-.47 2.05-1.18 2.74-2.13.69-.96 1.03-2.12 1.03-3.47 0-1.4-.44-2.6-1.32-3.61zm-10.68-2.7v-9.5h3.66c1.74 0 3.08.38 4.04 1.15.96.77 1.43 1.96 1.43 3.58 0 1.45-.39 2.61-1.18 3.47-.79.87-1.98 1.3-3.59 1.3zm8.67 9.88c-1.11.82-2.52 1.23-4.2 1.23h-4.47v-9.54h4.36c1.61 0 3 .4 4.19 1.2 1.19.8 1.78 2 1.78 3.6 0 1.52-.55 2.68-1.66 3.51zm21.69-7.18c-.88-1-2.03-1.71-3.45-2.13 1.16-.47 2.04-1.19 2.65-2.18.61-.99.92-2.14.92-3.46 0-4-2.4-6-7.21-6H3.77V0h6.17c1.33 0 2.57-.23 3.7-.7 1.13-.47 2.05-1.18 2.73-2.13.69-.96 1.04-2.12 1.04-3.47 0-1.4-.44-2.6-1.32-3.61zM5.4-12.61v-9.5h3.67c1.74 0 3.08.38 4.04 1.15.95.77 1.43 1.96 1.43 3.58 0 1.45-.39 2.61-1.18 3.47-.79.87-1.99 1.3-3.59 1.3zm8.67 9.88c-1.11.82-2.51 1.23-4.2 1.23H5.4v-9.54h4.37c1.6 0 3 .4 4.19 1.2 1.19.8 1.78 2 1.78 3.6 0 1.52-.55 2.68-1.67 3.51z"
          transform="translate(30.375 43.244)"
          className="0"
        ></path>
        <path
          fill="#0f0f0f"
          d="M-72.51-12.92c-1.15-1.3-2.65-2.23-4.51-2.78 1.51-.61 2.66-1.56 3.46-2.85.8-1.29 1.2-2.79 1.2-4.51 0-5.22-3.13-7.83-9.4-7.83h-6.83V0h8.05c1.74 0 3.35-.3 4.83-.91 1.48-.61 2.67-1.54 3.56-2.79.9-1.24 1.35-2.75 1.35-4.52 0-1.83-.57-3.39-1.71-4.7zm-13.95-3.52v-12.4h4.79c2.26 0 4.01.5 5.26 1.5s1.87 2.56 1.87 4.68c0 1.88-.51 3.39-1.54 4.52-1.03 1.13-2.59 1.7-4.68 1.7zm11.31 12.87c-1.45 1.08-3.27 1.61-5.48 1.61h-5.83V-14.4h5.7c2.09 0 3.91.52 5.46 1.57 1.55 1.04 2.33 2.61 2.33 4.7 0 1.97-.73 3.49-2.18 4.56zm21.1-19.72c-1.42 2.42-2.13 5.05-2.13 7.89 0 2.96.7 5.64 2.11 8.05 1.41 2.41 3.31 4.29 5.72 5.65C-45.94-.33-43.3.35-40.43.35c2.84 0 5.48-.71 7.91-2.11 2.44-1.41 4.37-3.32 5.79-5.74 1.42-2.43 2.13-5.06 2.13-7.9 0-2.84-.71-5.47-2.13-7.89-1.42-2.43-3.35-4.35-5.79-5.79-2.43-1.44-5.07-2.15-7.91-2.15-2.85 0-5.47.71-7.88 2.15-2.4 1.44-4.32 3.36-5.74 5.79zm1.87 14.76c-1.22-2.08-1.83-4.36-1.83-6.83 0-2.46.6-4.75 1.79-6.87s2.83-3.8 4.91-5.07c2.09-1.26 4.38-1.89 6.88-1.89 2.46 0 4.74.62 6.83 1.87a14.12 14.12 0 014.98 5.03c1.23 2.1 1.85 4.4 1.85 6.89 0 2.49-.61 4.79-1.83 6.9-1.22 2.1-2.88 3.76-4.98 4.98-2.1 1.21-4.4 1.82-6.9 1.82-2.46 0-4.72-.61-6.78-1.85-2.06-1.23-3.7-2.89-4.92-4.98zM7.9-10.22L11.94 0h2.39L1.28-32.23h-.17L-11.94 0h2.13l4.09-10.22zm-.79-2H-4.94l6.09-15.19zM47.48 0h2.48l-8.35-13.7c1.83-.7 3.17-1.81 4.04-3.33.87-1.52 1.31-3.23 1.31-5.11 0-1.94-.47-3.57-1.42-4.87a8.565 8.565 0 00-3.65-2.92c-1.49-.64-3.05-.96-4.68-.96h-7.04V0h2.13v-12.96h4.78c.93 0 1.7-.06 2.31-.18zm-4.5-17.1c-1.21 1.4-3.21 2.09-6.03 2.09H32.3v-13.83h5.22c1.45 0 2.73.3 3.83.91 1.1.61 1.95 1.44 2.54 2.48.6 1.05.89 2.18.89 3.4 0 1.91-.6 3.56-1.8 4.95zM66.4-30.89V0h9.09c2.67 0 5.16-.63 7.47-1.89 2.3-1.26 4.14-3.05 5.52-5.37 1.38-2.32 2.07-4.99 2.07-8.01 0-2.58-.58-5.06-1.72-7.44-1.15-2.38-2.96-4.33-5.44-5.87-2.48-1.54-5.6-2.31-9.37-2.31zm8.53 28.85h-6.4V-28.8h5.79c2.96 0 5.5.61 7.61 1.83 2.12 1.22 3.72 2.85 4.81 4.89 1.09 2.05 1.63 4.27 1.63 6.68 0 2.7-.59 5.05-1.78 7.07-1.19 2.02-2.81 3.57-4.85 4.65-2.05 1.09-4.32 1.64-6.81 1.64z"
          transform="translate(175.487 47.343)"
          className="0"
        ></path>
        <path
          fill="#4f4f4f"
          d="M-69.4-13.81c-.95-1.26-2.26-2.29-3.94-3.07a7.62 7.62 0 002.83-2.89c.66-1.2 1-2.6 1-4.2 0-2.61-.97-4.6-2.92-5.98-1.94-1.38-4.61-2.07-8-2.07h-9.4V0h10.66c3.19 0 5.85-.76 7.98-2.28 2.13-1.53 3.2-3.91 3.2-7.16 0-1.65-.47-3.11-1.41-4.37zm-14.12-5.11v-7.01h3.39c1.28 0 2.28.29 3 .85.73.57 1.09 1.39 1.09 2.46 0 1.04-.32 1.92-.96 2.63-.63.71-1.53 1.07-2.69 1.07zm7.63 12.16c-.91.59-2.11.89-3.59.89h-4.04v-6.96h3.61c3.6 0 5.39 1.13 5.39 3.39 0 1.19-.45 2.08-1.37 2.68zm23.15-17.34c-1.47 2.52-2.2 5.24-2.2 8.14 0 2.95.73 5.68 2.2 8.17 1.46 2.5 3.44 4.48 5.93 5.94 2.5 1.47 5.22 2.2 8.18 2.2 2.93 0 5.65-.73 8.16-2.2 2.51-1.46 4.51-3.44 6-5.94 1.49-2.49 2.24-5.22 2.24-8.17 0-2.9-.75-5.62-2.24-8.14a16.884 16.884 0 00-6-6.02c-2.51-1.5-5.23-2.24-8.16-2.24-2.93 0-5.65.74-8.15 2.24a16.54 16.54 0 00-5.96 6.02zm5.65 13.27c-.88-1.57-1.33-3.28-1.33-5.13 0-1.92.44-3.66 1.31-5.22.87-1.57 2.05-2.81 3.54-3.72 1.5-.92 3.16-1.37 4.99-1.37 1.82 0 3.48.45 4.98 1.37 1.49.91 2.67 2.15 3.54 3.72.87 1.56 1.31 3.3 1.31 5.22 0 1.88-.42 3.6-1.27 5.15-.84 1.55-2 2.78-3.48 3.7-1.47.91-3.11 1.37-4.91 1.37-1.86 0-3.55-.46-5.07-1.37-1.52-.92-2.72-2.16-3.61-3.72zM-6.98-24.1c-1.47 2.52-2.2 5.24-2.2 8.14 0 2.95.73 5.68 2.2 8.17 1.46 2.5 3.44 4.48 5.94 5.94C1.45-.38 4.18.35 7.13.35c2.93 0 5.65-.73 8.16-2.2 2.51-1.46 4.51-3.44 6-5.94 1.5-2.49 2.24-5.22 2.24-8.17 0-2.9-.74-5.62-2.24-8.14a16.884 16.884 0 00-6-6.02c-2.51-1.5-5.23-2.24-8.16-2.24-2.92 0-5.64.74-8.15 2.24a16.54 16.54 0 00-5.96 6.02zm5.65 13.27c-.88-1.57-1.32-3.28-1.32-5.13 0-1.92.43-3.66 1.3-5.22.87-1.57 2.05-2.81 3.55-3.72 1.49-.92 3.15-1.37 4.98-1.37 1.82 0 3.48.45 4.98 1.37 1.49.91 2.67 2.15 3.54 3.72.87 1.56 1.31 3.3 1.31 5.22 0 1.88-.42 3.6-1.26 5.15-.84 1.55-2 2.78-3.48 3.7-1.48.91-3.12 1.37-4.92 1.37-1.85 0-3.54-.46-5.07-1.37-1.52-.92-2.72-2.16-3.61-3.72zm49.7-15.75c2.06 0 4.48.77 7.27 2.31l2.39-4.83c-1.51-.99-3.06-1.75-4.66-2.29-1.59-.53-3.58-.8-5.95-.8-3.02.14-5.43 1.06-7.25 2.74-1.81 1.68-2.72 3.9-2.72 6.66 0 1.88.45 3.45 1.33 4.69.89 1.25 1.94 2.21 3.15 2.87 1.22.67 2.74 1.37 4.57 2.09 3.1 1.22 4.66 2.66 4.66 4.31 0 1.28-.5 2.2-1.48 2.76-.99.57-2.15.85-3.48.85-1.13 0-2.41-.26-3.83-.78-1.42-.53-2.68-1.19-3.79-2L35.8-3.09c1.62 1.16 3.38 2.02 5.26 2.59 1.89.57 3.79.85 5.7.85 2.29 0 4.27-.42 5.92-1.24 1.65-.83 2.91-1.94 3.76-3.35a8.644 8.644 0 001.28-4.59c0-1.91-.35-3.5-1.06-4.74-.71-1.25-1.6-2.23-2.68-2.94-1.07-.71-2.36-1.34-3.87-1.89-1.85-.7-3.34-1.43-4.46-2.2-1.11-.77-1.67-1.66-1.67-2.67 0-1.1.38-1.93 1.15-2.48.77-.55 1.85-.83 3.24-.83zM92-32.02H70.43v6.09h7.48V0h6.31v-25.93H92z"
          transform="translate(369.999 47.408)"
          className="0"
        ></path>
      </g>
    </svg>
